# Blender v2.93.4 OBJ File: 'LivingRoom.blend'
# www.blender.org
mtllib Chair.mtl
o Cube.005
v -1.460128 0.105897 -3.141654
v -1.533156 0.451605 -3.068625
v -1.460128 0.105897 -3.219032
v -1.533156 0.451605 -3.292061
v -1.382750 0.105897 -3.141654
v -1.309721 0.451605 -3.068625
v -1.382750 0.105897 -3.219032
v -1.309721 0.451605 -3.292061
v -1.592780 0.442820 -3.014944
v -1.592780 0.956721 -3.014944
v -1.592780 0.442820 -4.246171
v -1.592780 0.956721 -4.246171
v -0.299092 0.442820 -3.014944
v -0.299092 0.956721 -3.014944
v -0.299092 0.442820 -4.246171
v -0.299092 0.956721 -4.246171
v -1.592780 0.442820 -3.974909
v -1.592780 0.956721 -3.974909
v -0.299092 0.442820 -3.974909
v -0.299092 0.956721 -3.974909
v -0.622514 0.442820 -4.246171
v -0.945936 0.442820 -4.246171
v -1.269358 0.442820 -4.246171
v -1.269358 0.956721 -4.246171
v -0.945936 0.956721 -4.246171
v -0.622514 0.956721 -4.246171
v -1.269358 0.442820 -3.014944
v -0.945936 0.442820 -3.014944
v -0.622514 0.442820 -3.014944
v -0.519028 0.956721 -3.014944
v -0.945936 0.956721 -3.014944
v -1.375322 0.956721 -3.014944
v -1.375322 0.956721 -3.974909
v -0.945936 0.956721 -3.974909
v -0.519028 0.956721 -3.974909
v -0.622514 0.442820 -3.974909
v -0.945936 0.442820 -3.974909
v -1.269358 0.442820 -3.974909
v -1.269358 1.975212 -4.246171
v -0.945936 1.975212 -4.246171
v -0.622514 1.975212 -4.246171
v -1.269358 1.975212 -3.974909
v -0.945936 1.975212 -3.974909
v -0.622514 1.975212 -3.974909
v -0.299092 1.270571 -3.974909
v -0.299092 1.270571 -3.014944
v -1.592780 1.270571 -3.014944
v -1.592780 1.270571 -3.974909
v -1.375322 1.196884 -3.014944
v -1.560818 1.270571 -3.014944
v -1.389442 1.225083 -3.014944
v -1.429652 1.248988 -3.014944
v -1.489832 1.264961 -3.014944
v -0.519028 1.196884 -3.974909
v -0.333531 1.270571 -3.974909
v -0.504908 1.225083 -3.974909
v -0.464697 1.248988 -3.974909
v -0.404518 1.264961 -3.974909
v -0.333531 1.270571 -3.014944
v -0.519028 1.196884 -3.014944
v -0.404518 1.264961 -3.014944
v -0.464697 1.248988 -3.014944
v -0.504908 1.225083 -3.014944
v -1.560818 1.270571 -3.974909
v -1.375322 1.196884 -3.974909
v -1.489832 1.264961 -3.974909
v -1.429652 1.248988 -3.974909
v -1.389442 1.225083 -3.974909
v -1.500099 1.975212 -3.974909
v -1.592780 1.938395 -3.974909
v -1.509184 1.975034 -3.974909
v -1.518180 1.974504 -3.974909
v -1.527003 1.973626 -3.974909
v -1.535567 1.972409 -3.974909
v -1.543789 1.970864 -3.974909
v -1.551590 1.969007 -3.974909
v -1.558895 1.966855 -3.974909
v -1.565634 1.964428 -3.974909
v -1.571743 1.961751 -3.974909
v -1.577160 1.958849 -3.974909
v -1.581836 1.955750 -3.974909
v -1.585725 1.952484 -3.974909
v -1.588789 1.949082 -3.974909
v -1.590999 1.945578 -3.974909
v -1.592334 1.942004 -3.974909
v -1.592780 1.938395 -4.246171
v -1.500099 1.975212 -4.246171
v -1.592334 1.942004 -4.246171
v -1.590999 1.945578 -4.246171
v -1.588789 1.949082 -4.246171
v -1.585725 1.952484 -4.246171
v -1.581836 1.955750 -4.246171
v -1.577160 1.958849 -4.246171
v -1.571743 1.961751 -4.246171
v -1.565634 1.964428 -4.246171
v -1.558895 1.966855 -4.246171
v -1.551590 1.969007 -4.246171
v -1.543789 1.970864 -4.246171
v -1.535567 1.972409 -4.246171
v -1.527003 1.973626 -4.246171
v -1.518180 1.974504 -4.246171
v -1.509184 1.975034 -4.246171
v -0.391772 1.975212 -4.246171
v -0.299092 1.938395 -4.246171
v -0.382688 1.975034 -4.246171
v -0.373691 1.974504 -4.246171
v -0.364869 1.973626 -4.246171
v -0.356305 1.972409 -4.246171
v -0.348083 1.970864 -4.246171
v -0.340282 1.969007 -4.246171
v -0.332976 1.966855 -4.246171
v -0.326237 1.964428 -4.246171
v -0.320129 1.961751 -4.246171
v -0.314711 1.958849 -4.246171
v -0.310035 1.955750 -4.246171
v -0.306147 1.952484 -4.246171
v -0.303082 1.949082 -4.246171
v -0.300873 1.945578 -4.246171
v -0.299538 1.942004 -4.246171
v -0.299092 1.938395 -3.974909
v -0.391772 1.975212 -3.974909
v -0.299538 1.942004 -3.974909
v -0.300873 1.945578 -3.974909
v -0.303082 1.949082 -3.974909
v -0.306147 1.952484 -3.974909
v -0.310035 1.955750 -3.974909
v -0.314711 1.958849 -3.974909
v -0.320129 1.961751 -3.974909
v -0.326237 1.964428 -3.974909
v -0.332976 1.966855 -3.974909
v -0.340282 1.969007 -3.974909
v -0.348083 1.970864 -3.974909
v -0.356305 1.972409 -3.974909
v -0.364869 1.973626 -3.974909
v -0.373691 1.974504 -3.974909
v -0.382688 1.975034 -3.974909
v -0.506397 0.105897 -3.141654
v -0.579426 0.451604 -3.068625
v -0.506397 0.105897 -3.219032
v -0.579426 0.451604 -3.292061
v -0.429019 0.105897 -3.141654
v -0.355990 0.451604 -3.068625
v -0.429019 0.105897 -3.219032
v -0.355990 0.451604 -3.292061
v -1.460128 0.105897 -4.036308
v -1.533156 0.451604 -3.963280
v -1.460128 0.105897 -4.113686
v -1.533156 0.451604 -4.186715
v -1.382750 0.105897 -4.036308
v -1.309721 0.451604 -3.963280
v -1.382750 0.105897 -4.113686
v -1.309721 0.451604 -4.186715
v -0.506397 0.105897 -4.036308
v -0.579426 0.451604 -3.963280
v -0.506397 0.105897 -4.113686
v -0.579426 0.451604 -4.186715
v -0.429019 0.105897 -4.036308
v -0.355990 0.451604 -3.963280
v -0.429019 0.105897 -4.113686
v -0.355990 0.451604 -4.186715
vt 0.625000 0.000000
vt 0.375000 0.250000
vt 0.375000 0.000000
vt 0.625000 0.250000
vt 0.375000 0.500000
vt 0.625000 0.750000
vt 0.375000 0.750000
vt 0.375000 1.000000
vt 0.125000 0.750000
vt 0.125000 0.500000
vt 0.875000 0.500000
vt 0.625000 0.500000
vt 0.625000 0.194921
vt 0.375000 0.250000
vt 0.375000 0.194921
vt 0.625000 0.437500
vt 0.375000 0.500000
vt 0.375000 0.437500
vt 0.625000 0.555079
vt 0.375000 0.750000
vt 0.375000 0.555079
vt 0.625000 0.937500
vt 0.375000 1.000000
vt 0.375000 0.937500
vt 0.312500 0.750000
vt 0.312500 0.555079
vt 0.816000 0.555079
vt 0.813410 0.555079
vt 0.812500 0.555079
vt 0.625000 0.499656
vt 0.625000 0.499914
vt 0.625000 0.500000
vt 0.312500 0.500000
vt 0.625000 0.500000
vt 0.625000 0.000000
vt 0.375000 0.000000
vt 0.625000 0.262711
vt 0.625000 0.264416
vt 0.625000 0.250000
vt 0.639418 0.555079
vt 0.641155 0.555079
vt 0.625000 0.555079
vt 0.875000 0.555079
vt 0.812500 0.555079
vt 0.857090 0.555079
vt 0.857090 0.500000
vt 0.812500 0.555079
vt 0.812500 0.500000
vt 0.750000 0.555079
vt 0.687500 0.555079
vt 0.750000 0.555079
vt 0.750000 0.500000
vt 0.687500 0.500000
vt 0.187500 0.500000
vt 0.125000 0.555079
vt 0.125000 0.500000
vt 0.250000 0.500000
vt 0.187500 0.555079
vt 0.250000 0.555079
vt 0.642910 0.555079
vt 0.642910 0.500000
vt 0.625000 0.375000
vt 0.625000 0.437500
vt 0.625000 0.312500
vt 0.625000 0.375000
vt 0.625000 0.750000
vt 0.625000 0.750000
vt 0.687500 0.750000
vt 0.687500 0.555079
vt 0.750000 0.750000
vt 0.125000 0.750000
vt 0.187500 0.750000
vt 0.250000 0.750000
vt 0.625000 0.812500
vt 0.375000 0.812500
vt 0.625000 0.875000
vt 0.375000 0.875000
vt 0.625000 0.250000
vt 0.375000 0.312500
vt 0.375000 0.375000
vt 0.812500 0.750000
vt 0.812500 0.750000
vt 0.687500 0.555079
vt 0.625000 0.194921
vt 0.665371 0.555079
vt 0.651654 0.555079
vt 0.875000 0.555079
vt 0.848346 0.750000
vt 0.848346 0.555079
vt 0.625000 0.802001
vt 0.625000 0.809771
vt 0.625000 0.812500
vt 0.625000 0.555079
vt 0.687500 0.750000
vt 0.686590 0.555079
vt 0.687500 0.750000
vt 0.684000 0.555079
vt 0.687500 0.750000
vt 0.665371 0.750000
vt 0.834629 0.555079
vt 0.834629 0.750000
vt 0.812500 0.750000
vt 0.812500 0.750000
vt 0.625000 0.959629
vt 0.625000 0.973346
vt 0.625000 1.000000
vt 0.858845 0.555079
vt 0.858845 0.500000
vt 0.860584 0.555079
vt 0.860584 0.500000
vt 0.862289 0.555079
vt 0.862289 0.500000
vt 0.863944 0.555079
vt 0.863944 0.500000
vt 0.865533 0.555079
vt 0.865533 0.500000
vt 0.867040 0.555079
vt 0.867040 0.500000
vt 0.868452 0.555079
vt 0.868452 0.500000
vt 0.875000 0.555079
vt 0.625000 0.250000
vt 0.625000 0.194921
vt 0.625000 0.194921
vt 0.625000 0.250000
vt 0.625000 0.194921
vt 0.625000 0.250000
vt 0.625000 0.194921
vt 0.625000 0.250000
vt 0.625000 0.194921
vt 0.625000 0.250000
vt 0.625000 0.194921
vt 0.625000 0.250000
vt 0.625000 0.194921
vt 0.625000 0.250000
vt 0.625000 0.194921
vt 0.625000 0.250000
vt 0.625000 0.194921
vt 0.641155 0.500000
vt 0.639416 0.500000
vt 0.637711 0.500000
vt 0.637716 0.555079
vt 0.636056 0.500000
vt 0.636065 0.555079
vt 0.634467 0.500000
vt 0.634480 0.555079
vt 0.632960 0.500000
vt 0.632977 0.555079
vt 0.631548 0.500000
vt 0.631568 0.555079
vt 0.625000 0.500000
vt 0.626770 0.555079
vt 0.625000 0.500000
vt 0.626376 0.555079
vt 0.625000 0.500000
vt 0.626024 0.555079
vt 0.625000 0.500000
vt 0.625719 0.555079
vt 0.625000 0.500000
vt 0.625464 0.555079
vt 0.625000 0.500000
vt 0.625263 0.555079
vt 0.625000 0.500000
vt 0.625117 0.555079
vt 0.625000 0.500000
vt 0.625030 0.555079
vt 0.625000 0.000000
vt 0.375000 0.250000
vt 0.375000 0.000000
vt 0.625000 0.250000
vt 0.375000 0.500000
vt 0.625000 0.750000
vt 0.375000 0.750000
vt 0.375000 1.000000
vt 0.125000 0.750000
vt 0.125000 0.500000
vt 0.875000 0.500000
vt 0.625000 0.500000
vt 0.625000 0.000000
vt 0.375000 0.250000
vt 0.375000 0.000000
vt 0.625000 0.250000
vt 0.375000 0.500000
vt 0.625000 0.750000
vt 0.375000 0.750000
vt 0.375000 1.000000
vt 0.125000 0.750000
vt 0.125000 0.500000
vt 0.875000 0.500000
vt 0.625000 0.500000
vt 0.625000 0.000000
vt 0.375000 0.250000
vt 0.375000 0.000000
vt 0.625000 0.250000
vt 0.375000 0.500000
vt 0.625000 0.750000
vt 0.375000 0.750000
vt 0.375000 1.000000
vt 0.125000 0.750000
vt 0.125000 0.500000
vt 0.875000 0.500000
vt 0.625000 0.500000
vt 0.625000 1.000000
vt 0.875000 0.750000
vt 0.875000 0.555079
vt 0.625000 0.482090
vt 0.625000 0.483845
vt 0.625000 0.485584
vt 0.625000 0.487289
vt 0.625000 0.488944
vt 0.625000 0.490533
vt 0.625000 0.492040
vt 0.625000 0.493452
vt 0.625000 0.494754
vt 0.625000 0.495935
vt 0.625000 0.496982
vt 0.625000 0.497885
vt 0.625000 0.498637
vt 0.625000 0.499229
vt 0.625000 0.312500
vt 0.625000 0.267910
vt 0.625000 0.266155
vt 0.625000 0.250086
vt 0.625000 0.250344
vt 0.625000 0.250771
vt 0.625000 0.251363
vt 0.625000 0.252115
vt 0.625000 0.253018
vt 0.625000 0.254065
vt 0.625000 0.255246
vt 0.625000 0.256548
vt 0.625000 0.257960
vt 0.625000 0.259467
vt 0.625000 0.261056
vt 0.868391 0.555079
vt 0.869688 0.555079
vt 0.870871 0.555079
vt 0.871926 0.555079
vt 0.872842 0.555079
vt 0.873606 0.555079
vt 0.874210 0.555080
vt 0.874647 0.555080
vt 0.874911 0.555079
vt 0.625000 0.000000
vt 0.875000 0.750000
vt 0.625000 0.790371
vt 0.625000 0.776654
vt 0.651654 0.750000
vt 0.625000 1.000000
vt 0.625000 0.937500
vt 0.625000 0.947999
vt 0.625000 0.940229
vt 0.875000 0.500000
vt 0.625000 1.000000
vt 0.875000 0.750000
vt 0.625000 1.000000
vt 0.875000 0.750000
vt 0.625000 1.000000
vt 0.875000 0.750000
vn -0.9784 -0.2067 0.0000
vn 0.0000 -0.2067 -0.9784
vn 0.9784 -0.2067 0.0000
vn 0.0000 -0.2067 0.9784
vn 0.0000 -1.0000 0.0000
vn 0.0000 1.0000 0.0000
vn -1.0000 0.0000 0.0000
vn 0.0000 0.0000 -1.0000
vn 1.0000 0.0000 0.0000
vn 0.0000 0.0000 1.0000
vn 0.0006 0.0000 -1.0000
vn -0.8942 0.4477 0.0000
vn -0.5110 0.8596 0.0000
vn -0.2565 0.9665 0.0000
vn -0.0788 0.9969 0.0000
vn 0.0788 0.9969 0.0000
vn 0.2565 0.9665 0.0000
vn 0.5110 0.8596 0.0000
vn 0.8942 0.4477 0.0000
vn -0.0195 0.9998 0.0000
vn -0.0588 0.9983 0.0000
vn -0.0990 0.9951 0.0000
vn -0.1407 0.9900 0.0000
vn -0.1847 0.9828 0.0000
vn -0.2316 0.9728 0.0000
vn -0.2826 0.9592 0.0000
vn -0.3388 0.9409 0.0000
vn -0.4014 0.9159 0.0000
vn -0.4722 0.8815 0.0000
vn -0.5525 0.8335 0.0000
vn -0.6431 0.7658 0.0000
vn -0.7430 0.6693 0.0000
vn -0.8459 0.5334 0.0000
vn -0.9368 0.3498 0.0000
vn -0.9924 0.1227 0.0000
vn 0.0195 0.9998 0.0000
vn 0.0588 0.9983 0.0000
vn 0.0990 0.9951 0.0000
vn 0.1407 0.9900 0.0000
vn 0.1847 0.9828 0.0000
vn 0.2316 0.9728 0.0000
vn 0.2826 0.9592 0.0000
vn 0.3388 0.9409 0.0000
vn 0.4014 0.9159 0.0000
vn 0.4722 0.8815 0.0000
vn 0.5525 0.8335 0.0000
vn 0.6431 0.7657 0.0000
vn 0.7430 0.6693 0.0000
vn 0.8459 0.5334 0.0000
vn 0.9368 0.3498 0.0000
vn 0.9924 0.1228 0.0000
vn 0.0001 0.0000 -1.0000
vn 0.0002 0.0000 -1.0000
vn -0.0001 0.0000 -1.0000
vn -0.0006 0.0000 -1.0000
vn -0.0001 0.0000 1.0000
vn 0.0006 0.0000 1.0000
vn -0.0008 0.0000 1.0000
vn 0.0004 0.0000 1.0000
vn 0.0003 0.0000 1.0000
vn 0.0001 0.0000 1.0000
vn 0.0002 0.0000 1.0000
vn -0.0004 0.0000 1.0000
vn -0.0006 0.0000 1.0000
vn -0.6432 0.7657 0.0000
vn 0.9924 0.1227 0.0000
usemtl None
s off
f 2/1/1 3/2/1 1/3/1
f 4/4/2 7/5/2 3/2/2
f 7/5/3 6/6/3 5/7/3
f 6/6/4 1/8/4 5/7/4
f 7/5/5 1/9/5 3/10/5
f 4/11/6 6/6/6 8/12/6
f 18/13/7 11/14/7 17/15/7
f 26/16/8 15/17/8 21/18/8
f 20/19/9 13/20/9 19/21/9
f 32/22/10 9/23/10 27/24/10
f 19/21/5 29/25/5 36/26/5
f 67/27/8 68/28/8 65/29/8
f 118/30/11 119/31/11 104/32/11
f 15/17/5 36/26/5 21/33/5
f 16/34/9 19/21/9 15/17/9
f 10/35/7 17/15/7 9/36/7
f 100/37/8 101/38/8 86/39/8
f 135/40/10 136/41/10 120/42/10
f 70/43/10 33/44/10 69/45/10
f 87/46/6 42/47/6 39/48/6
f 34/49/10 42/47/10 33/44/10
f 34/49/10 44/50/10 43/51/10
f 16/34/9 120/42/9 20/19/9
f 40/52/6 44/50/6 41/53/6
f 39/48/6 43/51/6 40/52/6
f 23/54/5 17/55/5 11/56/5
f 22/57/5 38/58/5 23/54/5
f 21/33/5 37/59/5 22/57/5
f 41/53/6 121/60/6 103/61/6
f 25/62/8 41/63/8 26/16/8
f 24/64/8 40/65/8 25/62/8
f 20/19/9 46/66/9 14/67/9
f 34/49/6 30/68/6 35/69/6
f 33/44/6 31/70/6 34/49/6
f 38/58/5 9/71/5 17/55/5
f 37/59/5 27/72/5 38/58/5
f 36/26/5 28/73/5 37/59/5
f 13/20/10 30/74/10 29/75/10
f 29/75/10 31/76/10 28/77/10
f 31/76/10 27/24/10 28/77/10
f 12/78/8 23/79/8 11/14/8
f 24/64/8 22/80/8 23/79/8
f 25/62/8 21/18/8 22/80/8
f 33/44/9 49/81/9 32/82/9
f 30/68/7 54/83/7 35/69/7
f 10/35/7 48/84/7 18/13/7
f 58/85/8 55/86/8 20/19/8
f 48/87/6 50/88/6 64/89/6
f 62/90/10 63/91/10 60/92/10
f 55/86/6 46/66/6 45/93/6
f 60/94/12 56/95/12 54/83/12
f 63/96/13 57/97/13 56/95/13
f 62/98/14 58/85/14 57/97/14
f 61/99/15 55/86/15 58/85/15
f 50/88/16 66/100/16 64/89/16
f 53/101/17 67/27/17 66/100/17
f 52/102/18 68/28/18 67/27/18
f 51/103/19 65/29/19 68/28/19
f 53/104/10 50/105/10 10/106/10
f 87/46/20 71/107/20 69/45/20
f 102/108/21 72/109/21 71/107/21
f 101/110/22 73/111/22 72/109/22
f 100/112/23 74/113/23 73/111/23
f 99/114/24 75/115/24 74/113/24
f 98/116/25 76/117/25 75/115/25
f 97/118/26 77/119/26 76/117/26
f 96/120/27 78/121/27 77/119/27
f 95/122/28 79/123/28 78/124/28
f 94/125/29 80/126/29 79/123/29
f 93/127/30 81/128/30 80/126/30
f 92/129/31 82/130/31 81/128/31
f 91/131/32 83/132/32 82/130/32
f 90/133/33 84/134/33 83/132/33
f 89/135/34 85/136/34 84/134/34
f 88/137/35 70/138/35 85/136/35
f 121/60/36 105/139/36 103/61/36
f 136/41/37 106/140/37 105/139/37
f 135/40/38 107/141/38 106/140/38
f 134/142/39 108/143/39 107/141/39
f 133/144/40 109/145/40 108/143/40
f 132/146/41 110/147/41 109/145/41
f 131/148/42 111/149/42 110/147/42
f 130/150/43 112/151/43 111/149/43
f 129/152/44 113/153/44 112/151/44
f 128/154/45 114/155/45 113/153/45
f 127/156/46 115/157/46 114/155/46
f 126/158/47 116/159/47 115/157/47
f 125/160/48 117/161/48 116/159/48
f 124/162/49 118/163/49 117/161/49
f 123/164/50 119/165/50 118/163/50
f 122/166/51 104/32/51 119/165/51
f 18/13/7 86/39/7 12/78/7
f 138/167/1 139/168/1 137/169/1
f 140/170/2 143/171/2 139/168/2
f 143/171/3 142/172/3 141/173/3
f 142/172/4 137/174/4 141/173/4
f 143/171/5 137/175/5 139/176/5
f 140/177/6 142/172/6 144/178/6
f 146/179/1 147/180/1 145/181/1
f 148/182/2 151/183/2 147/180/2
f 151/183/3 150/184/3 149/185/3
f 150/184/4 145/186/4 149/185/4
f 151/183/5 145/187/5 147/188/5
f 148/189/6 150/184/6 152/190/6
f 154/191/1 155/192/1 153/193/1
f 156/194/2 159/195/2 155/192/2
f 159/195/3 158/196/3 157/197/3
f 158/196/4 153/198/4 157/197/4
f 159/195/5 153/199/5 155/200/5
f 156/201/6 158/196/6 160/202/6
f 2/1/1 4/4/1 3/2/1
f 4/4/2 8/12/2 7/5/2
f 7/5/3 8/12/3 6/6/3
f 6/6/4 2/203/4 1/8/4
f 7/5/5 5/7/5 1/9/5
f 4/11/6 2/204/6 6/6/6
f 18/13/7 12/78/7 11/14/7
f 26/16/8 16/34/8 15/17/8
f 20/19/9 14/67/9 13/20/9
f 32/22/10 10/106/10 9/23/10
f 19/21/5 13/20/5 29/25/5
f 65/29/8 33/44/8 67/27/8
f 33/44/8 18/205/8 66/100/8
f 67/27/8 33/44/8 66/100/8
f 18/205/8 48/87/8 64/89/8
f 64/89/8 66/100/8 18/205/8
f 104/32/8 16/34/8 103/206/8
f 16/34/8 26/16/8 103/206/8
f 26/16/8 41/63/8 103/206/8
f 103/206/52 105/207/52 104/32/52
f 105/207/8 106/208/8 104/32/8
f 106/208/8 107/209/8 104/32/8
f 107/209/8 108/210/8 104/32/8
f 108/210/8 109/211/8 104/32/8
f 109/211/8 110/212/8 104/32/8
f 110/212/8 111/213/8 104/32/8
f 111/213/8 112/214/8 104/32/8
f 112/214/8 113/215/8 104/32/8
f 113/215/8 114/216/8 104/32/8
f 114/216/8 115/217/8 104/32/8
f 115/217/53 116/218/53 104/32/53
f 116/218/8 117/219/8 104/32/8
f 117/219/8 118/30/8 104/32/8
f 15/17/5 19/21/5 36/26/5
f 16/34/9 20/19/9 19/21/9
f 10/35/7 18/13/7 17/15/7
f 39/220/8 24/64/8 87/221/8
f 24/64/8 12/78/8 87/221/8
f 87/221/54 86/39/54 102/222/54
f 12/78/8 86/39/8 87/221/8
f 86/39/55 88/223/55 89/224/55
f 102/222/8 86/39/8 101/38/8
f 89/224/8 90/225/8 86/39/8
f 90/225/8 91/226/8 86/39/8
f 91/226/8 92/227/8 86/39/8
f 92/227/8 93/228/8 86/39/8
f 93/228/8 94/229/8 86/39/8
f 94/229/8 95/230/8 86/39/8
f 95/230/8 96/231/8 86/39/8
f 96/231/8 97/232/8 86/39/8
f 97/232/8 98/233/8 86/39/8
f 98/233/8 99/234/8 86/39/8
f 99/234/8 100/37/8 86/39/8
f 44/50/10 35/69/10 121/60/10
f 35/69/10 20/19/10 120/42/10
f 121/60/56 120/42/56 136/41/56
f 120/42/57 122/166/57 123/164/57
f 35/69/10 120/42/10 121/60/10
f 123/164/58 124/162/58 120/42/58
f 124/162/59 125/160/59 120/42/59
f 125/160/10 126/158/10 120/42/10
f 126/158/60 127/156/60 120/42/60
f 127/156/10 128/154/10 120/42/10
f 128/154/10 129/152/10 120/42/10
f 129/152/10 130/150/10 120/42/10
f 130/150/10 131/148/10 120/42/10
f 131/148/10 132/146/10 120/42/10
f 132/146/10 133/144/10 120/42/10
f 133/144/10 134/142/10 120/42/10
f 134/142/10 135/40/10 120/42/10
f 70/43/10 18/205/10 33/44/10
f 33/44/10 42/47/10 69/45/10
f 69/45/61 71/107/61 70/43/61
f 71/107/10 72/109/10 70/43/10
f 72/109/10 73/111/10 70/43/10
f 73/111/10 74/113/10 70/43/10
f 74/113/10 75/115/10 70/43/10
f 75/115/61 76/117/61 70/43/61
f 76/117/10 77/235/10 70/43/10
f 77/235/10 78/236/10 70/43/10
f 78/236/10 79/237/10 70/43/10
f 79/237/10 80/238/10 70/43/10
f 80/238/10 81/239/10 70/43/10
f 81/239/62 82/240/62 70/43/62
f 82/240/63 83/241/63 70/43/63
f 83/241/59 84/242/59 70/43/59
f 84/242/64 85/243/64 70/43/64
f 87/46/6 69/45/6 42/47/6
f 34/49/10 43/51/10 42/47/10
f 34/49/10 35/69/10 44/50/10
f 16/34/9 104/32/9 120/42/9
f 40/52/6 43/51/6 44/50/6
f 39/48/6 42/47/6 43/51/6
f 23/54/5 38/58/5 17/55/5
f 22/57/5 37/59/5 38/58/5
f 21/33/5 36/26/5 37/59/5
f 41/53/6 44/50/6 121/60/6
f 25/62/8 40/65/8 41/63/8
f 24/64/8 39/220/8 40/65/8
f 20/19/9 45/93/9 46/66/9
f 34/49/6 31/70/6 30/68/6
f 33/44/6 32/82/6 31/70/6
f 38/58/5 27/72/5 9/71/5
f 37/59/5 28/73/5 27/72/5
f 36/26/5 29/25/5 28/73/5
f 13/20/10 14/67/10 30/74/10
f 29/75/10 30/74/10 31/76/10
f 31/76/10 32/22/10 27/24/10
f 12/78/8 24/64/8 23/79/8
f 24/64/8 25/62/8 22/80/8
f 25/62/8 26/16/8 21/18/8
f 33/44/9 65/29/9 49/81/9
f 30/68/7 60/94/7 54/83/7
f 10/35/7 47/244/7 48/84/7
f 45/93/8 20/19/8 55/86/8
f 20/19/8 35/69/8 58/85/8
f 35/69/8 54/83/8 57/97/8
f 54/83/8 56/95/8 57/97/8
f 57/97/8 58/85/8 35/69/8
f 48/87/6 47/245/6 50/88/6
f 60/92/10 30/74/10 62/90/10
f 30/74/10 14/67/10 61/246/10
f 62/90/10 30/74/10 61/246/10
f 14/67/10 46/66/10 59/247/10
f 59/247/10 61/246/10 14/67/10
f 55/86/6 59/248/6 46/66/6
f 60/94/12 63/96/12 56/95/12
f 63/96/13 62/98/13 57/97/13
f 62/98/14 61/99/14 58/85/14
f 61/99/15 59/248/15 55/86/15
f 50/88/16 53/101/16 66/100/16
f 53/101/17 52/102/17 67/27/17
f 52/102/18 51/103/18 68/28/18
f 51/103/19 49/81/19 65/29/19
f 47/249/10 10/106/10 50/105/10
f 10/106/10 32/22/10 53/104/10
f 32/22/10 49/250/10 52/251/10
f 49/250/10 51/252/10 52/251/10
f 52/251/10 53/104/10 32/22/10
f 87/46/20 102/108/20 71/107/20
f 102/108/21 101/110/21 72/109/21
f 101/110/22 100/112/22 73/111/22
f 100/112/23 99/114/23 74/113/23
f 99/114/24 98/116/24 75/115/24
f 98/116/25 97/118/25 76/117/25
f 97/118/26 96/120/26 77/119/26
f 96/120/27 95/253/27 78/121/27
f 95/122/28 94/125/28 79/123/28
f 94/125/29 93/127/29 80/126/29
f 93/127/30 92/129/30 81/128/30
f 92/129/65 91/131/65 82/130/65
f 91/131/32 90/133/32 83/132/32
f 90/133/33 89/135/33 84/134/33
f 89/135/34 88/137/34 85/136/34
f 88/137/35 86/39/35 70/138/35
f 121/60/36 136/41/36 105/139/36
f 136/41/37 135/40/37 106/140/37
f 135/40/38 134/142/38 107/141/38
f 134/142/39 133/144/39 108/143/39
f 133/144/40 132/146/40 109/145/40
f 132/146/41 131/148/41 110/147/41
f 131/148/42 130/150/42 111/149/42
f 130/150/43 129/152/43 112/151/43
f 129/152/44 128/154/44 113/153/44
f 128/154/45 127/156/45 114/155/45
f 127/156/46 126/158/46 115/157/46
f 126/158/47 125/160/47 116/159/47
f 125/160/48 124/162/48 117/161/48
f 124/162/49 123/164/49 118/163/49
f 123/164/50 122/166/50 119/165/50
f 122/166/66 120/42/66 104/32/66
f 18/13/7 70/138/7 86/39/7
f 138/167/1 140/170/1 139/168/1
f 140/170/2 144/178/2 143/171/2
f 143/171/3 144/178/3 142/172/3
f 142/172/4 138/254/4 137/174/4
f 143/171/5 141/173/5 137/175/5
f 140/177/6 138/255/6 142/172/6
f 146/179/1 148/182/1 147/180/1
f 148/182/2 152/190/2 151/183/2
f 151/183/3 152/190/3 150/184/3
f 150/184/4 146/256/4 145/186/4
f 151/183/5 149/185/5 145/187/5
f 148/189/6 146/257/6 150/184/6
f 154/191/1 156/194/1 155/192/1
f 156/194/2 160/202/2 159/195/2
f 159/195/3 160/202/3 158/196/3
f 158/196/4 154/258/4 153/198/4
f 159/195/5 157/197/5 153/199/5
f 156/201/6 154/259/6 158/196/6
