# Blender v2.93.4 OBJ File: 'LivingRoom.blend'
# www.blender.org
mtllib Table.mtl
o Cube.003
v -1.503118 0.099799 0.725458
v -1.503118 0.803860 0.725458
v -1.503118 0.099799 -0.725458
v -1.503118 0.803860 -0.725458
v 1.595598 0.099799 0.725458
v 1.595598 0.803860 0.725458
v 1.595598 0.099799 -0.725458
v 1.595598 0.803860 -0.725458
v -1.598267 0.011062 0.725458
v -1.598267 0.892597 0.725458
v -1.598267 0.892597 -0.725458
v -1.598267 0.011062 -0.725458
v 1.691137 0.011062 -0.725458
v 1.691137 0.892597 -0.725458
v 1.691137 0.892597 0.725458
v 1.691137 0.011062 0.725458
vt 0.625000 0.000000
vt 0.375000 0.250000
vt 0.375000 0.000000
vt 0.400165 0.275165
vt 0.599835 0.974835
vt 0.400165 0.974835
vt 0.625000 0.500000
vt 0.375000 0.750000
vt 0.375000 0.500000
vt 0.599835 0.474835
vt 0.599835 0.275165
vt 0.125000 0.750000
vt 0.125000 0.500000
vt 0.875000 0.500000
vt 0.625000 0.750000
vt 0.625000 1.000000
vt 0.375000 1.000000
vt 0.625000 0.250000
vt 0.400165 0.474835
vt 0.400165 0.775166
vt 0.599835 0.775165
vt 0.875000 0.750000
vn -1.0000 0.0000 0.0000
vn 1.0000 0.0000 0.0000
vn 0.0000 -1.0000 0.0000
vn 0.0000 1.0000 0.0000
vn 0.0000 0.0000 1.0000
vn 0.0000 0.0000 -1.0000
usemtl None
s off
f 10/1/1 12/2/1 9/3/1
f 3/4/2 2/5/2 1/6/2
f 14/7/2 16/8/2 13/9/2
f 8/10/3 2/5/3 4/11/3
f 13/9/3 9/12/3 12/13/3
f 11/14/4 15/15/4 14/7/4
f 1/6/5 10/16/5 9/17/5
f 4/11/6 12/2/6 11/18/6
f 7/19/6 12/2/6 3/4/6
f 8/10/6 11/18/6 14/7/6
f 8/10/6 13/9/6 7/19/6
f 5/20/5 15/15/5 6/21/5
f 5/20/5 9/17/5 16/8/5
f 6/21/5 10/16/5 2/5/5
f 3/4/4 5/20/4 7/19/4
f 5/20/1 8/10/1 7/19/1
f 10/1/1 11/18/1 12/2/1
f 3/4/2 4/11/2 2/5/2
f 14/7/2 15/15/2 16/8/2
f 8/10/3 6/21/3 2/5/3
f 13/9/3 16/8/3 9/12/3
f 11/14/4 10/22/4 15/15/4
f 1/6/5 2/5/5 10/16/5
f 4/11/6 3/4/6 12/2/6
f 7/19/6 13/9/6 12/2/6
f 8/10/6 4/11/6 11/18/6
f 8/10/6 14/7/6 13/9/6
f 5/20/5 16/8/5 15/15/5
f 5/20/5 1/6/5 9/17/5
f 6/21/5 15/15/5 10/16/5
f 3/4/4 1/6/4 5/20/4
f 5/20/1 6/21/1 8/10/1
