# Blender v2.93.4 OBJ File: 'LivingRoom.blend'
# www.blender.org
mtllib Wall.mtl
o Cube.009
v -4.659613 -0.039605 -3.400984
v -4.659613 5.136154 -3.400984
v -4.659613 -0.039605 -5.714828
v -4.659613 5.136154 -5.714828
v -2.659613 -0.039605 -3.400984
v -2.659613 5.136154 -3.400984
v -2.659613 -0.039605 -5.714828
v -2.659613 5.136154 -5.714828
v -4.659613 -0.039605 -5.001392
v -4.659613 5.136154 -5.001392
v -2.659613 -0.039605 -5.001392
v -2.659613 5.136154 -5.001392
v -2.280585 4.740242 -5.635920
v -2.280585 0.356307 -5.635920
v -2.280585 0.356307 -5.080300
v -2.280585 4.740242 -5.080300
v -2.365366 5.136154 -5.714828
v -2.365366 -0.039605 -5.714828
v -2.365366 -0.039605 -5.001392
v -2.365366 5.136154 -5.001392
v 2.284459 4.868462 -5.595155
v 2.284459 0.228087 -5.595155
v 2.284459 0.228087 -5.121065
v 2.284459 4.868462 -5.121065
v 2.199678 4.740242 -5.635920
v 2.199678 0.356307 -5.635920
v 2.199678 0.356307 -5.080300
v 2.199678 4.740242 -5.080300
v 2.197923 4.644516 -5.595155
v 2.197923 0.452033 -5.595155
v 2.197923 0.452033 -5.121065
v 2.197923 4.644516 -5.121065
v -1.825338 4.644516 -5.595155
v -1.825338 0.452033 -5.595155
v -1.825338 0.452033 -5.121065
v -1.825338 4.644516 -5.121065
v -1.370493 4.612761 -5.595155
v -1.370493 0.483787 -5.595155
v -1.370493 0.483787 -5.121065
v -1.370493 4.612761 -5.121065
v 6.596570 4.612761 -5.595155
v 6.596570 0.483787 -5.595155
v 6.596570 0.483787 -5.121065
v 6.596570 4.612761 -5.121065
v 6.821822 5.034770 -5.612146
v 6.821822 0.061779 -5.612146
v 6.821822 0.061779 -5.104074
v 6.821822 5.034770 -5.104074
v 8.305970 5.034770 -5.612146
v 8.305970 0.061779 -5.612146
v 8.305970 0.061779 -5.104074
v 8.305970 5.034770 -5.104074
v -2.365366 4.959647 -5.635920
v -2.365366 0.136902 -5.635920
v -2.365366 4.959647 -5.080300
v -2.365366 0.136902 -5.080300
v 2.284459 4.959647 -5.635920
v 2.284459 0.136902 -5.635920
v 2.284459 4.959647 -5.080300
v 2.284459 0.136902 -5.080300
v -1.469300 4.868462 -5.595155
v -1.469300 0.228087 -5.595155
v -1.469300 4.868462 -5.121065
v -1.469300 0.228087 -5.121065
v 6.695376 4.868462 -5.595155
v 6.695376 0.228087 -5.595155
v 6.695376 4.868462 -5.121065
v 6.695376 0.228087 -5.121065
v 2.284459 4.868462 -5.595155
v 2.284459 0.228087 -5.595155
v 2.284459 4.868462 -5.121065
v 2.284459 0.228087 -5.121065
v -1.911875 4.868462 -5.595155
v -1.911875 0.228087 -5.595155
v -1.911875 4.868462 -5.121065
v -1.911875 0.228087 -5.121065
v -4.659613 -0.039605 -5.001392
v -4.659613 -0.039605 -3.400984
v -4.659613 5.136154 -3.400984
v -4.659613 5.136154 -5.001392
v -4.659613 5.136154 -5.714828
v -4.659613 -0.039605 -5.714828
v -4.659613 -0.039605 4.140068
v -4.659613 -0.039605 5.740476
v -4.659613 5.136154 5.740476
v -4.659613 5.136154 4.140068
v -2.738683 0.861300 -3.738004
v -2.738683 3.475192 -3.738004
v -2.738683 0.861300 -4.747605
v -2.738683 3.475192 -4.747605
v -2.616559 0.928244 -3.763861
v -2.616559 3.408247 -3.763861
v -2.616559 0.928244 -4.721748
v -2.616559 3.408247 -4.721748
v -2.616559 3.475192 -4.747605
v -2.616559 0.861300 -4.747605
v -2.616559 0.861300 -3.738004
v -2.616559 3.475192 -3.738004
v -2.646714 3.394688 -4.716511
v -2.646714 0.941803 -4.716511
v -2.646714 0.941803 -3.769098
v -2.646714 3.394688 -3.769098
v -2.646714 3.408247 -4.721748
v -2.646714 0.928244 -4.721748
v -2.646714 0.928244 -3.763861
v -2.646714 3.408247 -3.763861
v -2.584606 3.394688 -4.716511
v -2.584606 0.941803 -4.716511
v -2.584606 0.941803 -3.769098
v -2.584606 3.394688 -3.769098
vt 0.875000 0.577083
vt 0.875000 0.500000
vt 0.875000 0.577083
vt 0.625000 0.250000
vt 0.375000 0.500000
vt 0.375000 0.250000
vt 0.625000 0.577083
vt 0.375000 0.750000
vt 0.375000 0.577083
vt 0.625000 0.750000
vt 0.375000 1.000000
vt 0.125000 0.750000
vt 0.125000 0.577083
vt 0.875000 0.500000
vt 0.625000 0.500000
vt 0.125000 0.500000
vt 0.375000 0.577083
vt 0.875000 0.750000
vt 0.875000 0.750000
vt 0.625000 0.577083
vt 0.375000 0.500000
vt 0.625000 0.500000
vt 0.383526 0.508526
vt 0.616474 0.508526
vt 0.383526 0.568558
vt 0.616474 0.568558
vt 0.000000 0.000000
vt 0.000000 0.000000
vt 0.000000 0.000000
vt 0.383526 0.568558
vt 0.616474 0.508526
vt 0.612070 0.512930
vt 0.383526 0.508526
vt 0.387930 0.564153
vt 0.387930 0.512930
vt 0.616474 0.568558
vt 0.612070 0.564153
vt 0.612070 0.564153
vt 0.612070 0.512930
vt 0.612070 0.512930
vt 0.387930 0.512930
vt 0.387930 0.564153
vt 0.000000 0.000000
vt 0.000000 0.000000
vt 0.000000 0.000000
vt 0.387930 0.564153
vt 0.387930 0.512930
vt 0.125000 0.577083
vt 0.125000 0.750000
vt 0.125000 0.577083
vt 0.625000 0.172917
vt 0.375000 0.250000
vt 0.375000 0.172917
vt 0.387930 0.564153
vt 0.612070 0.512930
vt 0.387930 0.512930
vt 0.387930 0.512930
vt 0.387930 0.564153
vt 0.387930 0.564153
vt 0.612070 0.564153
vt 0.612070 0.512930
vt 0.612070 0.564153
vt 0.612070 0.512930
vt 0.612070 0.512930
vt 0.387930 0.512930
vt 0.612070 0.564153
vt 0.387930 0.564153
vt 0.387930 0.512930
vt 0.612070 0.564153
vt 0.394123 0.508526
vt 0.605877 0.508526
vt 0.605877 0.568558
vt 0.394123 0.568558
vt 0.394123 0.508526
vt 0.605877 0.568558
vt 0.605877 0.508526
vt 0.394123 0.568558
vt 0.400281 0.512930
vt 0.599719 0.512930
vt 0.599719 0.564153
vt 0.400281 0.564153
vt 0.599719 0.512930
vt 0.400281 0.512930
vt 0.400281 0.564153
vt 0.599719 0.564153
vt 0.398747 0.512930
vt 0.601253 0.512930
vt 0.601253 0.564153
vt 0.398747 0.564153
vt 0.601253 0.512930
vt 0.398747 0.512930
vt 0.398747 0.564153
vt 0.612070 0.564153
vt 0.601253 0.564153
vt 0.125000 0.750000
vt 0.625000 0.250000
vt 0.125000 0.500000
vt 0.625000 1.000000
vt 0.375000 1.000000
vt 0.625000 0.000000
vt 0.375000 0.172917
vt 0.375000 0.000000
vt 0.875000 0.577083
vt 0.875000 0.750000
vt 0.375000 1.000000
vt 0.625000 0.172917
vt 0.625000 0.000000
vt 0.375000 0.250000
vt 0.375000 0.000000
vt 0.625000 0.250000
vt 0.375000 0.500000
vt 0.381403 0.743597
vt 0.618597 0.743597
vt 0.618597 0.743597
vt 0.625000 0.750000
vt 0.375000 1.000000
vt 0.375000 0.750000
vt 0.125000 0.750000
vt 0.125000 0.500000
vt 0.875000 0.500000
vt 0.625000 0.500000
vt 0.381403 0.506403
vt 0.618597 0.506403
vt 0.617300 0.507700
vt 0.382700 0.507700
vt 0.382700 0.507700
vt 0.381403 0.743597
vt 0.618597 0.506403
vt 0.381403 0.506403
vt 0.382700 0.742300
vt 0.617300 0.742300
vt 0.617300 0.507700
vt 0.382700 0.742300
vt 0.617300 0.742300
vt 0.625000 1.000000
vt 0.000000 0.000000
vt 0.000000 0.000000
vt 0.625000 1.000000
vt 0.625000 1.000000
vt 0.875000 0.750000
vn 0.0000 0.0000 1.0000
vn 0.0000 0.0000 -1.0000
vn 1.0000 0.0000 0.0000
vn 0.0000 -1.0000 0.0000
vn 0.0000 1.0000 0.0000
vn -1.0000 0.0000 0.0000
vn -0.7960 -0.6052 0.0000
vn -0.7960 0.6052 0.0000
vn -0.1332 0.0000 -0.9911
vn -0.1332 0.0000 0.9911
usemtl None
s off
f 10/1/1 81/2/1 80/3/1
f 4/4/2 7/5/2 3/6/2
f 12/7/3 5/8/3 11/9/3
f 6/10/1 1/11/1 5/8/1
f 11/9/4 1/12/4 9/13/4
f 10/1/5 6/10/5 12/7/5
f 4/14/5 12/7/5 8/15/5
f 7/5/4 9/13/4 3/16/4
f 7/5/4 19/17/4 11/9/4
f 2/18/1 80/3/1 79/19/1
f 11/9/1 20/20/1 12/7/1
f 8/15/2 18/21/2 7/5/2
f 12/7/5 17/22/5 8/15/5
f 54/23/3 17/22/3 53/24/3
f 56/25/3 18/21/3 54/23/3
f 53/24/3 20/20/3 55/26/3
f 55/26/3 19/17/3 56/25/3
f 24/27/1 72/28/1 71/29/1
f 54/23/4 60/30/4 56/25/4
f 55/26/5 57/31/5 53/24/5
f 21/32/3 58/33/3 57/31/3
f 23/34/3 58/33/3 22/35/3
f 21/32/3 59/36/3 24/37/3
f 23/34/3 59/36/3 60/30/3
f 71/38/4 73/39/4 69/40/4
f 23/34/1 70/41/1 72/42/1
f 21/32/1 71/38/1 69/40/1
f 22/43/1 69/44/1 70/45/1
f 73/39/3 76/46/3 74/47/3
f 77/48/4 84/49/4 83/50/4
f 80/51/6 82/52/6 77/53/6
f 70/41/5 76/46/5 72/42/5
f 64/54/6 61/55/6 62/56/6
f 66/57/7 47/58/7 68/59/7
f 62/56/4 68/59/4 64/54/4
f 63/60/5 65/61/5 61/55/5
f 48/62/5 49/63/5 45/64/5
f 65/61/8 48/62/8 45/64/8
f 65/61/9 46/65/9 66/57/9
f 68/59/10 48/62/10 67/66/10
f 49/63/3 51/67/3 50/68/3
f 45/64/2 50/68/2 46/65/2
f 47/58/1 52/69/1 48/62/1
f 46/65/4 51/67/4 47/58/4
f 14/70/2 53/24/2 13/71/2
f 16/72/1 56/25/1 15/73/1
f 26/74/2 57/31/2 58/33/2
f 28/75/1 60/30/1 59/36/1
f 13/71/2 57/31/2 25/76/2
f 14/70/2 58/33/2 54/23/2
f 15/73/1 60/30/1 27/77/1
f 16/72/1 59/36/1 55/26/1
f 38/78/2 61/55/2 37/79/2
f 40/80/1 64/54/1 39/81/1
f 41/82/2 66/57/2 42/83/2
f 43/84/1 67/66/1 44/85/1
f 43/84/1 64/54/1 68/59/1
f 44/85/1 63/60/1 40/80/1
f 42/83/2 62/56/2 38/78/2
f 41/82/2 61/55/2 65/61/2
f 30/86/1 69/40/1 29/87/1
f 32/88/2 72/42/2 31/89/2
f 33/90/1 74/47/1 34/91/1
f 35/92/2 75/93/2 36/94/2
f 36/94/2 71/38/2 32/88/2
f 29/87/1 73/39/1 33/90/1
f 34/91/1 70/41/1 30/86/1
f 31/89/2 76/46/2 35/92/2
f 9/13/1 78/95/1 77/48/1
f 4/4/1 82/52/1 81/96/1
f 3/16/1 77/48/1 82/97/1
f 1/11/1 79/98/1 78/99/1
f 85/100/6 83/101/6 84/102/6
f 79/19/4 86/103/4 85/104/4
f 79/98/3 84/105/3 78/99/3
f 77/53/6 86/106/6 80/51/6
f 88/107/6 89/108/6 87/109/6
f 90/110/2 96/111/2 89/108/2
f 91/112/2 106/113/2 92/114/2
f 98/115/1 87/116/1 97/117/1
f 96/111/4 87/118/4 89/119/4
f 90/120/5 98/115/5 95/121/5
f 93/122/3 95/121/3 94/123/3
f 91/112/3 96/111/3 93/122/3
f 94/123/3 98/115/3 92/114/3
f 92/114/3 97/117/3 91/112/3
f 99/124/2 108/125/2 100/126/2
f 93/122/5 105/127/5 91/112/5
f 92/114/4 103/128/4 94/123/4
f 94/123/1 104/129/1 93/122/1
f 100/126/3 103/128/3 99/124/3
f 101/130/3 104/129/3 100/126/3
f 99/124/3 106/113/3 102/131/3
f 102/131/3 105/127/3 101/130/3
f 107/132/3 109/133/3 108/125/3
f 101/130/1 110/134/1 102/131/1
f 100/126/4 109/133/4 101/130/4
f 102/131/5 107/132/5 99/124/5
f 10/1/1 4/14/1 81/2/1
f 4/4/2 8/15/2 7/5/2
f 12/7/3 6/10/3 5/8/3
f 6/10/1 2/135/1 1/11/1
f 11/9/4 5/8/4 1/12/4
f 10/1/5 2/18/5 6/10/5
f 4/14/5 10/1/5 12/7/5
f 7/5/4 11/9/4 9/13/4
f 7/5/4 18/21/4 19/17/4
f 2/18/1 10/1/1 80/3/1
f 11/9/1 19/17/1 20/20/1
f 8/15/2 17/22/2 18/21/2
f 12/7/5 20/20/5 17/22/5
f 54/23/3 18/21/3 17/22/3
f 56/25/3 19/17/3 18/21/3
f 53/24/3 17/22/3 20/20/3
f 55/26/3 20/20/3 19/17/3
f 24/27/1 23/136/1 72/28/1
f 54/23/4 58/33/4 60/30/4
f 55/26/5 59/36/5 57/31/5
f 21/32/3 22/35/3 58/33/3
f 23/34/3 60/30/3 58/33/3
f 21/32/3 57/31/3 59/36/3
f 23/34/3 24/37/3 59/36/3
f 71/38/4 75/93/4 73/39/4
f 23/34/1 22/35/1 70/41/1
f 21/32/1 24/37/1 71/38/1
f 22/43/1 21/137/1 69/44/1
f 73/39/3 75/93/3 76/46/3
f 77/48/1 78/95/1 84/49/1
f 80/51/6 81/96/6 82/52/6
f 70/41/5 74/47/5 76/46/5
f 64/54/6 63/60/6 61/55/6
f 66/57/7 46/65/7 47/58/7
f 62/56/4 66/57/4 68/59/4
f 63/60/5 67/66/5 65/61/5
f 48/62/5 52/69/5 49/63/5
f 65/61/8 67/66/8 48/62/8
f 65/61/9 45/64/9 46/65/9
f 68/59/10 47/58/10 48/62/10
f 49/63/3 52/69/3 51/67/3
f 45/64/2 49/63/2 50/68/2
f 47/58/1 51/67/1 52/69/1
f 46/65/4 50/68/4 51/67/4
f 14/70/2 54/23/2 53/24/2
f 16/72/1 55/26/1 56/25/1
f 26/74/2 25/76/2 57/31/2
f 28/75/1 27/77/1 60/30/1
f 13/71/2 53/24/2 57/31/2
f 14/70/2 26/74/2 58/33/2
f 15/73/1 56/25/1 60/30/1
f 16/72/1 28/75/1 59/36/1
f 38/78/2 62/56/2 61/55/2
f 40/80/1 63/60/1 64/54/1
f 41/82/2 65/61/2 66/57/2
f 43/84/1 68/59/1 67/66/1
f 43/84/1 39/81/1 64/54/1
f 44/85/1 67/66/1 63/60/1
f 42/83/2 66/57/2 62/56/2
f 41/82/2 37/79/2 61/55/2
f 30/86/1 70/41/1 69/40/1
f 32/88/2 71/38/2 72/42/2
f 33/90/1 73/39/1 74/47/1
f 35/92/2 76/46/2 75/93/2
f 36/94/2 75/93/2 71/38/2
f 29/87/1 69/40/1 73/39/1
f 34/91/1 74/47/1 70/41/1
f 31/89/2 72/42/2 76/46/2
f 9/13/1 1/12/1 78/95/1
f 4/4/1 3/6/1 82/52/1
f 3/16/1 9/13/1 77/48/1
f 1/11/1 2/135/1 79/98/1
f 85/100/6 86/106/6 83/101/6
f 79/19/5 80/3/5 86/103/5
f 79/98/3 85/138/3 84/105/3
f 77/53/6 83/101/6 86/106/6
f 88/107/6 90/110/6 89/108/6
f 90/110/2 95/121/2 96/111/2
f 91/112/2 105/127/2 106/113/2
f 98/115/1 88/139/1 87/116/1
f 96/111/4 97/117/4 87/118/4
f 90/120/5 88/140/5 98/115/5
f 93/122/3 96/111/3 95/121/3
f 91/112/3 97/117/3 96/111/3
f 94/123/3 95/121/3 98/115/3
f 92/114/3 98/115/3 97/117/3
f 99/124/2 107/132/2 108/125/2
f 93/122/5 104/129/5 105/127/5
f 92/114/4 106/113/4 103/128/4
f 94/123/1 103/128/1 104/129/1
f 100/126/3 104/129/3 103/128/3
f 101/130/3 105/127/3 104/129/3
f 99/124/3 103/128/3 106/113/3
f 102/131/3 106/113/3 105/127/3
f 107/132/3 110/134/3 109/133/3
f 101/130/1 109/133/1 110/134/1
f 100/126/4 108/125/4 109/133/4
f 102/131/5 110/134/5 107/132/5
o Cube.004_Cube.011
v -3.801237 2.053309 -3.354211
v -3.801237 2.412777 -3.354211
v -3.801237 2.053309 -3.533412
v -3.801237 2.412777 -3.533412
v -3.182552 2.053309 -3.354211
v -3.182552 2.412777 -3.354211
v -3.182552 2.053309 -3.533412
v -3.182552 2.412777 -3.533412
v -3.705876 2.286692 -3.354211
v -3.705876 2.357371 -3.354211
v -3.277913 2.357371 -3.354211
v -3.277913 2.286692 -3.354211
v -3.801237 2.053309 -3.354211
v -3.801237 2.412777 -3.354211
v -3.182552 2.412777 -3.354211
v -3.182552 2.053309 -3.354211
v -3.705876 2.286692 -3.364246
v -3.705876 2.357371 -3.364246
v -3.277913 2.357371 -3.364246
v -3.277913 2.286692 -3.364246
vt 0.625000 0.000000
vt 0.375000 0.250000
vt 0.375000 0.000000
vt 0.625000 0.250000
vt 0.375000 0.500000
vt 0.625000 0.500000
vt 0.375000 0.750000
vt 0.125000 0.750000
vt 0.375000 0.750000
vt 0.125000 0.750000
vt 0.125000 0.500000
vt 0.875000 0.500000
vt 0.625000 0.750000
vt 0.586466 0.961466
vt 0.586466 0.788534
vt 0.586466 0.788534
vt 0.875000 0.750000
vt 0.625000 0.750000
vt 0.000000 0.000000
vt 0.000000 0.000000
vt 0.000000 0.000000
vt 0.000000 0.000000
vt 0.000000 0.000000
vt 0.000000 0.000000
vt 0.413534 0.961466
vt 0.625000 1.000000
vt 0.375000 1.000000
vt 0.413534 0.788534
vt 0.413534 0.961466
vt 0.413534 0.788534
vt 0.586466 0.961466
vt 0.875000 0.750000
vt 0.000000 0.000000
vt 0.000000 0.000000
vn -1.0000 0.0000 0.0000
vn 0.0000 0.0000 -1.0000
vn 1.0000 0.0000 0.0000
vn 0.0000 0.0000 1.0000
vn 0.0000 -1.0000 0.0000
vn 0.0000 1.0000 0.0000
usemtl None
s off
f 112/141/11 113/142/11 111/143/11
f 114/144/12 117/145/12 113/142/12
f 118/146/13 115/147/13 117/145/13
f 111/148/14 126/149/14 123/150/14
f 117/145/15 111/148/15 113/151/15
f 114/152/16 116/153/16 118/146/16
f 120/154/15 129/155/15 121/156/15
f 116/153/14 124/157/14 125/158/14
f 115/159/14 125/160/14 126/161/14
f 112/162/14 123/163/14 124/164/14
f 119/165/14 124/166/14 123/167/14
f 122/168/14 125/158/14 121/156/14
f 119/165/14 126/149/14 122/168/14
f 121/156/14 124/166/14 120/154/14
f 129/155/14 127/169/14 130/170/14
f 121/156/11 130/170/11 122/168/11
f 122/168/16 127/169/16 119/165/16
f 119/165/13 128/171/13 120/154/13
f 112/141/11 114/144/11 113/142/11
f 114/144/12 118/146/12 117/145/12
f 118/146/13 116/153/13 115/147/13
f 111/148/14 115/147/14 126/149/14
f 117/145/15 115/147/15 111/148/15
f 114/152/16 112/172/16 116/153/16
f 120/154/15 128/171/15 129/155/15
f 116/153/14 112/172/14 124/157/14
f 115/159/14 116/173/14 125/160/14
f 112/162/14 111/174/14 123/163/14
f 119/165/14 120/154/14 124/166/14
f 122/168/14 126/149/14 125/158/14
f 119/165/14 123/167/14 126/149/14
f 121/156/14 125/158/14 124/166/14
f 129/155/14 128/171/14 127/169/14
f 121/156/11 129/155/11 130/170/11
f 122/168/16 130/170/16 127/169/16
f 119/165/13 127/169/13 128/171/13
